<svg xmlns="http://www.w3.org/2000/svg" width="23.635" height="32" viewBox="0 0 23.635 32">
  <g id="Group_8" data-name="Group 8" transform="translate(-741 -2194)">
    <g id="mobile-search" transform="translate(741 2194)">
      <path id="Path_33" data-name="Path 33" d="M0,402.207a2.207,2.207,0,0,0,2.207,2.207H15.448a2.207,2.207,0,0,0,2.207-2.207V400H0Zm0,0" transform="translate(0 -372.414)" fill="#d6d9db"/>
      <path id="Path_34" data-name="Path 34" d="M17.655,2.207A2.207,2.207,0,0,0,15.448,0H2.207A2.207,2.207,0,0,0,0,2.207V4.414H17.655Zm0,0" fill="#d6d9db"/>
      <path id="Path_35" data-name="Path 35" d="M0,64H17.655V87.172H0Zm0,0" transform="translate(0 -59.586)" fill="#003698"/>
      <path id="Path_36" data-name="Path 36" d="M0,129.655v2.207H17.655V112Zm0,0" transform="translate(0 -104.276)" fill="#003698"/>
      <path id="Path_37" data-name="Path 37" d="M120,424h1.1v1.1H120Zm0,0" transform="translate(-111.724 -394.759)" fill="#a0a1a3"/>
      <path id="Path_38" data-name="Path 38" d="M32,104H45.241v5H32Zm0,0" transform="translate(-29.793 -97.828)" fill="#fff" opacity="0.26"/>
      <path id="Path_40" data-name="Path 40" d="M56,128h2v2H56Zm0,0" transform="translate(-52.138 -120.172)" fill="#fdb62f"/>
      <path id="Path_41" data-name="Path 41" d="M88,128h2v2H88Zm0,0" transform="translate(-80.626 -120.172)" fill="#fdb62f"/>
      <path id="Path_42" data-name="Path 42" d="M120,128h2v2h-2Zm0,0" transform="translate(-109.113 -120.172)" fill="#fdb62f"/>
      <path id="Union_1" data-name="Union 1" d="M-737.138-2181.862v-1.1h4.965v1.1Zm-3.862,0v-1.1h2.758v1.1Zm0-2.207v-1.1h4.414v1.1Zm0-2.207v-1.1h6.069v1.1Zm0-2.207v-1.1h3.862v1.1Zm4.414-2.207v-1.1h1.655v1.1Zm-4.414,0v-1.1h3.31v1.1Zm2.207-2.208v-1.1h2.758v1.1Zm-2.207,0v-1.1h1.1v1.1Z" transform="translate(742.655 2207.241)" fill="#426ab3"/>
      <path id="Path_57" data-name="Path 57" d="M80,24h6.621v1.1H80Zm0,0" transform="translate(-74.483 -22.345)" fill="#b6b8ba"/>
    </g>
    <g id="shield_1_" data-name="shield(1)" transform="translate(594.862 2083)">
      <path id="Path_29" data-name="Path 29" d="M191.313,130.506V127.54a1.978,1.978,0,0,0-1.977-1.978h0a1.978,1.978,0,0,0-1.978,1.978v2.966H185.38V127.54a3.955,3.955,0,0,1,3.955-3.955h0a3.955,3.955,0,0,1,3.955,3.955v2.966Z" transform="translate(-25)" fill="#e5e5e5"/>
      <g id="Group_4" data-name="Group 4" transform="translate(160.38 124.668)">
        <path id="Path_30" data-name="Path 30" d="M185.379,207.839h1.978v-2.333a19.546,19.546,0,0,1-1.978.85Z" transform="translate(-185.379 -202.001)" fill="#d6d6d6"/>
        <path id="Path_31" data-name="Path 31" d="M280.547,142.919a13.392,13.392,0,0,1-1.419,1.389,1.976,1.976,0,0,1,.682,1.483v2.966h1.978v-2.966A3.953,3.953,0,0,0,280.547,142.919Z" transform="translate(-273.878 -142.919)" fill="#d6d6d6"/>
      </g>
      <rect id="SVGCleanerId_0" width="10.876" height="8.899" transform="translate(158.897 129.518)" fill="#fdb62f"/>
      <g id="Group_5" data-name="Group 5" transform="translate(158.897 129.518)">
        <rect id="SVGCleanerId_0_1_" width="10.876" height="8.899" transform="translate(0)" fill="#fdb62f"/>
      </g>
      <path id="Path_32" data-name="Path 32" d="M169.773,363.414H158.9A10.711,10.711,0,0,1,169.773,363.414Z" transform="translate(0 -224.997)" fill="#ffa230"/>
      <g id="Group_6" data-name="Group 6" transform="translate(163.346 132.484)">
        <rect id="Rectangle_7" data-name="Rectangle 7" width="0.989" height="2.472" transform="translate(0.494 1.483)" fill="#003698"/>
        <circle id="Ellipse_1" data-name="Ellipse 1" cx="0.989" cy="0.989" r="0.989" transform="translate(0 0)" fill="#003698"/>
      </g>
    </g>
  </g>
</svg>
