<svg xmlns="http://www.w3.org/2000/svg" width="289.14" height="70.899"><g fill-rule="evenodd"><path d="M12.8 40c1.8-6.77 7.2-10.16 13.8-10.16 7 0 12 3.39 12.8 10.16zm38.3 9.88c1.9-20.64-8.4-30.84-24.9-30.84-16 0-26.2 10.8-26.2 26.24 0 15.31 10.1 25.6 27.1 25.6 7.5 0 16-2.55 21.2-7.84l-7.8-7.47C37.7 58.36 31.8 60 27.3 60c-8.6 0-13.9-4.24-14.7-10.12zM112.26 0v69.88h11.29l.8-6.79c3.77 5.71 9.83 7.64 15.79 7.64 14.39 0 25-9.24 25-25.42 0-16.91-10.42-25.31-24.7-25.31-5.17 0-13.22 2.67-16.09 7.54V0zm27.09 30.88c7.75 0 13.91 5.51 13.91 14.43 0 8.63-6.16 14.54-13.91 14.54-7.65 0-14.21-5.61-14.21-14.54a14.039 14.039 0 0114.21-14.43zM187.08 20h-11.76v49.88h11.76zm16.18-17.71v18.56h-9.2v10.68h9.2v21.43c0 12.28 6.87 18.32 17.48 17.92a27.43 27.43 0 0010.1-2.08l-3.4-10.31a13.807 13.807 0 01-5.9 1.51c-3.8 0-6.4-2.31-6.4-7.04V31.53h13.7V20.85h-13.6V14l-6.41-6.31zm58.84 28.35c19.55 0 19.55 29.6 0 29.6-8.3 0-14.96-5.54-14.96-14.85s6.66-14.75 14.96-14.75zm14.96-3.66c-2.87-4.89-9.33-7.98-16.09-7.98-14.71-.1-25.71 8.78-25.71 25.89 0 17.35 10.51 26.09 25.4 25.99 5.64-.1 13.53-2.82 16.4-8.45l.6 7.51h11.48v-49h-11.68zM82.9 37.56L71.2 21H56.6v.4l16.2 23.69-17.2 24.49v.3h14.6l9.7-15.36 11.7 15.36h14.6v-.3l-6.62-9.43-16.54-22.9z" fill="#0a1991"/><path d="M96.09 34.73l9.11-13.33V21H86.6zm79.23-19.79h11.76L175.32 2z" fill="#f0af1b"/></g></svg>