<svg xmlns="http://www.w3.org/2000/svg" width="32" height="32.006" viewBox="0 0 32 32.006">
  <path id="globe-solid" d="M21.714,17.808C20.778,12.046,18.571,8,16,8s-4.775,4.046-5.711,9.808ZM9.808,24a40.446,40.446,0,0,0,.213,4.13H21.979A40.446,40.446,0,0,0,22.192,24a40.447,40.447,0,0,0-.213-4.13H10.021A40.446,40.446,0,0,0,9.808,24Zm20.953-6.195a16.037,16.037,0,0,0-10.2-9.137,21.779,21.779,0,0,1,3.226,9.137ZM11.435,8.671A16.026,16.026,0,0,0,1.245,17.808H8.215a21.691,21.691,0,0,1,3.22-9.137Zm20.017,11.2h-7.4c.136,1.355.213,2.742.213,4.13s-.077,2.775-.213,4.13h7.4A15.865,15.865,0,0,0,32,24a16.142,16.142,0,0,0-.548-4.13ZM7.743,24c0-1.387.077-2.775.213-4.13H.555a15.644,15.644,0,0,0,0,8.26h7.4C7.821,26.778,7.743,25.391,7.743,24ZM10.292,30.2c.936,5.762,3.143,9.808,5.711,9.808s4.775-4.046,5.711-9.808Zm10.279,9.137a16.052,16.052,0,0,0,10.2-9.137H23.8A21.779,21.779,0,0,1,20.572,39.335ZM1.245,30.2a16.037,16.037,0,0,0,10.2,9.137A21.779,21.779,0,0,1,8.215,30.2H1.245Z" transform="translate(0 -8)" fill="#4dc480"/>
</svg>
