<svg xmlns="http://www.w3.org/2000/svg" width="23.467" height="32" viewBox="0 0 23.467 32">
  <g id="shield_1_" data-name="shield(1)" transform="translate(-158.897 -123.585)">
    <path id="Path_29" data-name="Path 29" d="M198.18,138.518v-6.4a4.267,4.267,0,0,0-4.267-4.267h0a4.267,4.267,0,0,0-4.267,4.267v6.4H185.38v-6.4a8.534,8.534,0,0,1,8.533-8.533h0a8.534,8.534,0,0,1,8.533,8.533v6.4Z" transform="translate(-23.283)" fill="#e5e5e5"/>
    <g id="Group_4" data-name="Group 4" transform="translate(162.097 125.921)">
      <path id="Path_30" data-name="Path 30" d="M185.379,210.541h4.267v-5.035a42.18,42.18,0,0,1-4.267,1.835Z" transform="translate(-185.379 -197.943)" fill="#d6d6d6"/>
      <path id="Path_31" data-name="Path 31" d="M282.189,142.919a28.915,28.915,0,0,1-3.061,3,4.264,4.264,0,0,1,1.472,3.2v6.4h4.267v-6.4A8.53,8.53,0,0,0,282.189,142.919Z" transform="translate(-267.8 -142.919)" fill="#d6d6d6"/>
    </g>
    <rect id="SVGCleanerId_0" width="23.467" height="19.2" transform="translate(158.897 136.385)" fill="#fdb62f"/>
    <g id="Group_5" data-name="Group 5" transform="translate(158.897 136.385)">
      <rect id="SVGCleanerId_0_1_" width="23.467" height="19.2" transform="translate(0)" fill="#fdb62f"/>
    </g>
    <path id="Path_32" data-name="Path 32" d="M182.363,365.131H158.9C165.553,360.864,175.707,360.864,182.363,365.131Z" transform="translate(0 -209.546)" fill="#ffa230"/>
    <g id="Group_6" data-name="Group 6" transform="translate(168.497 142.785)">
      <rect id="Rectangle_7" data-name="Rectangle 7" width="2.133" height="5.333" transform="translate(1.067 3.2)" fill="#003698"/>
      <circle id="Ellipse_1" data-name="Ellipse 1" cx="2.133" cy="2.133" r="2.133" transform="translate(0 0)" fill="#003698"/>
    </g>
  </g>
</svg>
