<svg xmlns="http://www.w3.org/2000/svg" width="16" height="12.251" viewBox="0 0 16 12.251">
  <path id="sign-in-alt-solid" d="M13,76H10.375A.376.376,0,0,1,10,75.625v-1.25A.376.376,0,0,1,10.375,74H13a1,1,0,0,0,1-1V67a1,1,0,0,0-1-1H10.375A.376.376,0,0,1,10,65.625v-1.25A.376.376,0,0,1,10.375,64H13a3,3,0,0,1,3,3v6A3,3,0,0,1,13,76Zm-1.469-6.281-5.25-5.25A.751.751,0,0,0,5,65v3H.75a.748.748,0,0,0-.75.75v3a.748.748,0,0,0,.75.75H5v3a.751.751,0,0,0,1.281.531l5.25-5.25A.756.756,0,0,0,11.531,69.719Z" transform="translate(0 -64)" fill="#fff"/>
</svg>
