<svg width="24" height="24" viewBox="0 0 24 24" fill="none" xmlns="http://www.w3.org/2000/svg">
<path d="M8.50426 10.5637L12 7.068L15.4974 10.5653L17.5314 8.53126L12 3L6.4704 8.5296L8.50433 10.5636L8.50426 10.5637ZM3 12L5.03407 9.96564L7.068 11.9996L5.03393 14.0336L3 12ZM8.50426 13.4365L12 16.932L15.4973 13.4348L17.5324 15.4677L17.5314 15.4688L12 21L6.4704 15.4704L6.46752 15.4675L8.50447 13.4363L8.50426 13.4365ZM16.932 12.0009L18.9661 9.96679L21 12.0007L18.966 14.0348L16.932 12.0009Z" fill="white"/>
<path d="M14.0626 11.999H14.0635L11.9996 9.935L10.4741 11.4601L10.2989 11.6354L9.93745 11.9969L9.93457 11.9997L9.93745 12.0027L11.9996 14.0652L14.0636 12.0012L14.0646 12L14.0628 11.999" fill="white"/>
</svg>
