<svg width="16" height="16" viewBox="0 0 16 16" fill="none" xmlns="http://www.w3.org/2000/svg">
<path d="M8.00016 1.33337C4.32416 1.33337 1.3335 4.32404 1.3335 8.00004C1.3335 11.676 4.32416 14.6667 8.00016 14.6667C11.6762 14.6667 14.6668 11.676 14.6668 8.00004C14.6668 4.32404 11.6762 1.33337 8.00016 1.33337ZM8.66683 12H7.3335V10.6667H8.66683V12ZM9.3175 8.74337C9.18683 8.84871 9.06083 8.94937 8.96083 9.04937C8.68883 9.32071 8.6675 9.56737 8.66683 9.57804V9.66671H7.3335V9.55537C7.3335 9.47671 7.35283 8.77071 8.0175 8.10604C8.1475 7.97604 8.30883 7.84404 8.47816 7.70671C8.9675 7.31004 9.28883 7.02071 9.28883 6.62204C9.2895 5.91137 8.71083 5.33337 8.00016 5.33337C7.2895 5.33337 6.71083 5.91137 6.71083 6.62271H5.3775C5.3775 5.17671 6.55416 4.00004 8.00016 4.00004C9.44616 4.00004 10.6228 5.17671 10.6228 6.62271C10.6228 7.68737 9.83683 8.32271 9.3175 8.74337Z" fill="url(#paint0_linear)"/>
<path d="M8.00016 1.33337C4.32416 1.33337 1.3335 4.32404 1.3335 8.00004C1.3335 11.676 4.32416 14.6667 8.00016 14.6667C11.6762 14.6667 14.6668 11.676 14.6668 8.00004C14.6668 4.32404 11.6762 1.33337 8.00016 1.33337ZM8.66683 12H7.3335V10.6667H8.66683V12ZM9.3175 8.74337C9.18683 8.84871 9.06083 8.94937 8.96083 9.04937C8.68883 9.32071 8.6675 9.56737 8.66683 9.57804V9.66671H7.3335V9.55537C7.3335 9.47671 7.35283 8.77071 8.0175 8.10604C8.1475 7.97604 8.30883 7.84404 8.47816 7.70671C8.9675 7.31004 9.28883 7.02071 9.28883 6.62204C9.2895 5.91137 8.71083 5.33337 8.00016 5.33337C7.2895 5.33337 6.71083 5.91137 6.71083 6.62271H5.3775C5.3775 5.17671 6.55416 4.00004 8.00016 4.00004C9.44616 4.00004 10.6228 5.17671 10.6228 6.62271C10.6228 7.68737 9.83683 8.32271 9.3175 8.74337Z" fill="url(#paint1_linear)"/>
<path d="M8.00016 1.33337C4.32416 1.33337 1.3335 4.32404 1.3335 8.00004C1.3335 11.676 4.32416 14.6667 8.00016 14.6667C11.6762 14.6667 14.6668 11.676 14.6668 8.00004C14.6668 4.32404 11.6762 1.33337 8.00016 1.33337ZM8.66683 12H7.3335V10.6667H8.66683V12ZM9.3175 8.74337C9.18683 8.84871 9.06083 8.94937 8.96083 9.04937C8.68883 9.32071 8.6675 9.56737 8.66683 9.57804V9.66671H7.3335V9.55537C7.3335 9.47671 7.35283 8.77071 8.0175 8.10604C8.1475 7.97604 8.30883 7.84404 8.47816 7.70671C8.9675 7.31004 9.28883 7.02071 9.28883 6.62204C9.2895 5.91137 8.71083 5.33337 8.00016 5.33337C7.2895 5.33337 6.71083 5.91137 6.71083 6.62271H5.3775C5.3775 5.17671 6.55416 4.00004 8.00016 4.00004C9.44616 4.00004 10.6228 5.17671 10.6228 6.62271C10.6228 7.68737 9.83683 8.32271 9.3175 8.74337Z" fill="#599EFB"/>
<defs>
<linearGradient id="paint0_linear" x1="8.00016" y1="1.33337" x2="8.00016" y2="14.6667" gradientUnits="userSpaceOnUse">
<stop stop-color="#2F80ED"/>
<stop offset="1" stop-color="#599EFB"/>
</linearGradient>
<linearGradient id="paint1_linear" x1="8.00016" y1="1.33337" x2="8.00016" y2="14.6667" gradientUnits="userSpaceOnUse">
<stop stop-color="#599EFB"/>
<stop offset="1" stop-color="#2F80ED"/>
</linearGradient>
</defs>
</svg>
