<svg width="24" height="24" viewBox="0 0 24 24" fill="none" xmlns="http://www.w3.org/2000/svg">
<g clip-path="url(#clip0)">
<path d="M16.7635 14.9804C17.3972 15.832 18.0507 16.7034 18.7043 17.5747C17.3972 19.1195 15.7733 20.1097 13.8127 20.5255C11.6342 20.981 9.57461 20.6444 7.57441 19.5353C9.35677 18.2085 11.0995 16.9014 12.8621 15.5943C13.2582 15.9706 13.6344 16.3469 14.0107 16.7034C14.4266 17.0995 14.2682 17.1193 14.8029 16.8222C15.5356 16.4063 16.1495 15.832 16.6248 15.1389C16.6446 15.0992 16.6842 15.0596 16.7041 15.02C16.6842 15.02 16.7041 15.02 16.7635 14.9804ZM8.98049 16.7232C8.48539 17.0995 8.0299 17.4361 7.57441 17.7926C7.23774 18.05 6.90107 18.2877 6.5644 18.5451C6.42577 18.664 6.32675 18.664 6.16832 18.5253C4.66322 17.1787 3.71262 15.5151 3.35615 13.5347C2.99968 11.5345 3.31654 9.63334 4.26714 7.83118C4.28694 7.79157 4.32655 7.73216 4.34635 7.69255C4.34635 7.67274 4.36616 7.67274 4.40576 7.65294C5.71283 9.37589 7.0397 11.0988 8.34676 12.8218C8.30715 12.8812 8.28735 12.9208 8.24774 12.9604C7.85166 13.3763 7.45558 13.7922 7.0397 14.1883C6.92087 14.3071 6.90107 14.4061 6.98028 14.5447C7.39617 15.3369 7.97049 15.9904 8.68343 16.5251C8.78245 16.5845 8.86167 16.644 8.98049 16.7232ZM16.3674 4.42489C15.7337 4.88038 15.0999 5.33587 14.4662 5.77156C13.377 6.54392 12.2878 7.33608 11.2183 8.10843C11.0797 8.20745 10.9807 8.22726 10.8619 8.08863C10.5054 7.71235 10.1291 7.37568 9.77265 6.99941C9.67363 6.90039 9.57461 6.88058 9.43598 6.94C8.58441 7.37568 7.91107 7.98961 7.35656 8.76196C7.31695 8.80157 7.27735 8.86098 7.23774 8.9204C6.92087 8.50451 6.62381 8.12824 6.32675 7.73216C6.00989 7.31627 5.71283 6.90039 5.41577 6.50431C5.31675 6.36568 5.29694 6.26666 5.43557 6.12803C6.96048 4.44469 8.84186 3.45449 11.0995 3.21684C12.8819 3.0188 14.585 3.37527 16.1693 4.22685C16.2288 4.26645 16.2882 4.28626 16.3476 4.32587C16.3476 4.38528 16.3476 4.40508 16.3674 4.42489ZM19.5954 16.3073C19.1796 15.7726 18.8033 15.2775 18.427 14.7824C17.5556 13.6337 16.6843 12.4653 15.7931 11.3167C15.6742 11.1582 15.6742 11.0592 15.8129 10.9206C16.1891 10.5443 16.5456 10.168 16.9219 9.79177C17.0209 9.69275 17.0605 9.59373 16.9813 9.4551C16.5456 8.62334 15.9515 7.9302 15.1791 7.37568C15.1197 7.33608 15.0603 7.27666 14.9811 7.23706C15.0405 7.17764 15.0999 7.13804 15.1395 7.09843C15.8921 6.52411 16.6446 5.9696 17.3972 5.39528C17.516 5.29626 17.615 5.25665 17.7537 5.39528C19.635 7.09843 20.6451 9.21746 20.7441 11.7722C20.7837 13.2575 20.447 14.6636 19.7737 15.9904C19.7143 16.0696 19.6549 16.1687 19.5954 16.3073Z" fill="white"/>
</g>
<defs>
<clipPath id="clip0">
<rect width="17.784" height="18" fill="white" transform="translate(3 3)"/>
</clipPath>
</defs>
</svg>
